<svg viewBox="230 190 470 420" xmlns="http://www.w3.org/2000/svg">
  <!-- Cropped head-only version of mascot.svg (the fluffier, bigger-eyed,
       no-mouth panda redraw), for use as a small recurring "narrator"
       avatar inside lesson screens — see assets/mascot.svg for the
       source of truth and commit history. Kept in sync by hand whenever
       the full mascot art changes. -->
  <defs>
    <radialGradient id="bodyGradFace" cx="40%" cy="30%" r="80%">
      <stop offset="0%" stop-color="#ffffff" />
      <stop offset="100%" stop-color="#eceae8" />
    </radialGradient>
  </defs>

  <!-- extra-round, fluffy head -->
  <ellipse cx="460" cy="420" rx="215" ry="195" fill="url(#bodyGradFace)" />
  <!-- fluff tufts around the head/cheeks -->
  <g fill="#ffffff">
    <circle cx="268" cy="400" r="22" /><circle cx="252" cy="470" r="20" />
    <circle cx="652" cy="394" r="22" /><circle cx="668" cy="464" r="20" />
  </g>

  <!-- big round fluffy ears -->
  <circle cx="320" cy="270" r="74" fill="#2f2f38" />
  <circle cx="600" cy="262" r="74" fill="#2f2f38" />
  <circle cx="320" cy="270" r="30" fill="#45454f" />
  <circle cx="600" cy="262" r="30" fill="#45454f" />

  <!-- panda eye patches, extra large and round for a softer cute look -->
  <ellipse cx="380" cy="430" rx="68" ry="80" fill="#2f2f38" transform="rotate(-10 380 430)" />
  <ellipse cx="538" cy="426" rx="68" ry="80" fill="#2f2f38" transform="rotate(10 538 426)" />

  <!-- BIG sparkly eyes -->
  <circle cx="392" cy="434" r="36" fill="#ffffff" />
  <circle cx="548" cy="430" r="36" fill="#ffffff" />
  <circle cx="400" cy="440" r="20" fill="#2f2f38" />
  <circle cx="556" cy="436" r="20" fill="#2f2f38" />
  <circle cx="408" cy="430" r="7" fill="#ffffff" />
  <circle cx="564" cy="426" r="7" fill="#ffffff" />
  <circle cx="390" cy="450" r="4" fill="#ffffff" />
  <circle cx="546" cy="446" r="4" fill="#ffffff" />

  <!-- rosy cheeks -->
  <circle cx="352" cy="488" r="26" fill="#f6b8c6" opacity="0.75" />
  <circle cx="566" cy="484" r="26" fill="#f6b8c6" opacity="0.75" />

  <!-- small nose only - no mouth/lips, kept blank per request -->
  <ellipse cx="462" cy="480" rx="24" ry="17" fill="#2f2f38" />
</svg>
